<?xml version="1.0" encoding="UTF-8"?>
<!DOCTYPE svg PUBLIC "-//W3C//DTD SVG 1.1//EN" "http://www.w3.org/Graphics/SVG/1.1/DTD/svg11.dtd">
<!-- Creator: CorelDRAW 2021 (64-Bit) -->
<svg xmlns="http://www.w3.org/2000/svg" xml:space="preserve" width="200mm" height="200mm" version="1.1" style="shape-rendering:geometricPrecision; text-rendering:geometricPrecision; image-rendering:optimizeQuality; fill-rule:evenodd; clip-rule:evenodd"
viewBox="0 0 20000 20000"
 xmlns:xlink="http://www.w3.org/1999/xlink"
 xmlns:xodm="http://www.corel.com/coreldraw/odm/2003">
 <defs>
  <style type="text/css">
   <![CDATA[
    .fil0 {fill:#E32222}
    .fil1 {fill:#FACA0B}
    .fil2 {fill:white}
    .fil3 {fill:#E6E6E6;fill-rule:nonzero}
   ]]>
  </style>
 </defs>
 <g id="Layer_x0020_1">
  <metadata id="CorelCorpID_0Corel-Layer"/>
  <polygon class="fil0" points="2568.41,7317.49 17416.38,7317.49 17416.38,12697.7 2568.41,12697.7 "/>
  <path class="fil1" d="M3812.74 8587.03c0,0 164.33,330.15 671.07,598.17 562.95,297.74 1425.68,1132.46 488.79,2008.77 0,0 1197.25,-596.32 147.82,-1730.06 -371.01,-402.66 -1050.42,-491.65 -1307.68,-876.88z"/>
  <path class="fil1" d="M4446.26 9559.89c-351.16,-256.06 -771.84,-451.12 -820.24,-972.86 -75.8,437.99 133.24,711.53 418.84,908.86 956.46,573.27 1177.99,1325.76 64.95,1932.27 1036.23,-221.61 1309.58,-1182.51 336.45,-1868.27z"/>
  <path class="fil1" d="M3396.87 8815.06c-42.72,249.54 -33.6,470.03 50.66,648.44 -30.4,30.4 -60.79,60.79 -91.19,91.19 32.09,0 67.76,0 99.85,0 -8.29,171.64 -123.37,363.34 -242.26,571.84 48.97,15.2 123.94,56.41 172.91,71.61 53.36,193.45 109.11,353.89 223.51,486.24 53.28,97.81 62.84,221.14 55.02,354.61 13.95,119.77 147.87,107.01 215.17,91.19 383.78,-127.92 530.74,-365.52 696.68,0 104.84,-286.66 125.55,-555.26 0,-810.56 -396.53,-656.77 -1043.49,-764.31 -1180.35,-1504.56zm684.09 1123.01c-169.4,-140.43 -338.82,-280.87 -508.23,-421.3 7.22,196.5 -53.66,372.04 -177.21,528.3 82.31,46.96 174.36,90.85 153.67,191.4 -20.68,100.55 169.62,355.59 217.47,487.36 37.52,103.3 -51.78,311.73 75.23,272.5 220.12,-58.52 440.25,-117.02 660.37,-175.54 75.85,-262.87 -92.58,-561.18 -421.3,-882.72z"/>
  <g id="_2520485154048">
   <path class="fil2" d="M10175.81 9181.87l10.19 -10.23c333.84,-105.73 462.52,92.74 427.24,410.1l-560.63 0.21c-7.46,-140.52 -19.59,-329.75 123.2,-400.08zm-154.07 840.55c59.33,-59.39 22.8,-258.8 32.19,-351.08l559.91 5.14c6.62,69.59 2.19,142.85 2.08,213.38 -0.12,79.12 -21.34,148.13 82.18,132.49 54.15,-53.02 29.53,-247.98 29.53,-327.48 0,-115.46 7.86,-234.05 -10.24,-347.71 -33.27,-208.93 -207.49,-302.57 -408.94,-295.61 -437.17,15.11 -368.63,439.78 -368.63,704.9 0,206.07 -27.66,283.55 81.92,265.97z"/>
   <path class="fil2" d="M8153.66 9160.68l17.54 -8.56c130.31,-6.36 185.26,-19.58 304.81,48.67 241.53,137.86 237.97,637.86 -102.22,722.29 -547.84,135.97 -635.01,-684.57 -220.13,-762.4zm591.41 475.05c116.99,-660.99 -832.95,-806.65 -950.96,-201.5 -129.99,666.58 840.67,824.67 950.96,201.5z"/>
   <path class="fil2" d="M6865.91 10023.5c53.77,-44.38 30.46,-150.62 30.46,-215.74 0,-69.47 -5.53,-165.81 3.12,-235.83l575.67 5.53c15.56,96.74 -21.25,377.8 19.99,440.7 122.13,37.9 89.52,-77.94 89.45,-169.36 -0.08,-120.53 9.24,-747.27 -7.35,-774.26 -34.18,-32.93 -56.71,-28.62 -97.36,-3.33l-3.03 407.85 -580.49 0.27c0,-89.44 17.66,-349.76 -16.35,-415.04 -39.88,-18 -39.84,-19.67 -78.84,1.62 -36.17,71.6 -16.37,385.68 -16.39,485.28 -0.01,61.96 -22.76,451.46 29.55,473.34l51.57 -1.03z"/>
   <path class="fil2" d="M14387.03 9109.7l-10.21 10.33c-144.56,97.24 -118.85,289 25.64,375.27 134.98,80.58 294.61,76.5 428.75,144.96 171.74,87.64 92.1,285.02 -115.67,290.89 -124.61,3.54 -241.45,-11.47 -336.12,-95.02 -37.74,-33.3 -37.06,-50.58 -96.46,-48.54l-25.96 41.23c16.77,56.05 70.73,94.76 120.04,122.68l10.16 10.21c118.95,44.47 179.76,72.02 317.78,66.11 96.39,-4.13 206.56,-32.51 271.56,-102.02 135.34,-144.7 31,-374.7 -217.39,-416.47 -16.24,0.82 -13.03,5.25 -13.03,-9.5 -70.07,-7.74 -201.95,-49.32 -268.1,-80.26 -87.78,-41.06 -120.42,-145.69 -50.35,-217.66 60.68,-62.31 214.7,-59.68 297.26,-49.63 132.27,16.1 133.26,74.51 214.9,130.74 113.59,37.91 82.76,-164.81 -132.3,-203.99l-10.2 -10.24c-181.03,-13.59 -234.28,-43.7 -410.3,40.91z"/>
   <path class="fil2" d="M6351.28 9623.59c15.22,-0.43 11.96,-4.46 11.96,9.82 172.23,63.35 136.54,276.65 -71.65,296.48 -318.89,30.41 -356.15,-139.43 -451.98,-144.29l-26.36 25.47c-11.8,92.02 131.66,165.95 211.96,181.52l10.17 10.21c174.29,26.65 346.47,61.43 486.59,-77.35 60.11,-59.54 81.07,-161 46.1,-240.66 -91.21,-207.79 -489.99,-185.51 -596.57,-305.79 -55.99,-63.18 -31.2,-161.05 39.79,-201.06 79.88,-45.02 184.67,-24.38 272.83,-28.25l16.63 12.5c135.87,12.61 177.02,181.64 253.59,97.54 30.91,-190.95 -513.72,-308.69 -682.75,-88.22 -140.69,183.49 46.52,348.49 287.01,400.16 69.51,14.95 127.55,36.72 192.68,51.92z"/>
   <path class="fil2" d="M9066.3 9603.03c-10.62,-57.78 -3.5,-191.09 -3.44,-257.08 0.05,-64.06 -23.66,-176.51 60.41,-190.96 106.22,-18.24 363.45,-9.34 446.4,58.7 101.17,82.97 85.5,302.26 -33.04,363.86 -69.53,36.14 -406.37,55.83 -470.33,25.48zm-2.29 107.11c179.3,-45.81 460.93,68.54 628.38,-139.52 63.1,-78.4 65.36,-223.6 30.79,-315.26 -85.41,-226.41 -380.19,-191.09 -582.7,-188.88 -145.01,1.59 -185.07,57.77 -184.59,197.35 0.4,115.34 -21.01,695.85 14.72,754.72 38.79,12 43.67,15.3 78.63,-4.31 28.18,-53.1 11.53,-232.4 14.77,-304.1z"/>
   <path class="fil2" d="M12040.86 10023.04c53.27,-47.17 30.53,-205.19 30.53,-276.86 0,-293.86 -55.52,-604.64 287.01,-602.9 341.37,1.73 286.62,307.89 286.61,602.9 -0.02,69.51 -20.26,225.95 23.67,274.06 39.5,10.38 39.35,13.36 73.68,-10.87 21.76,-56.04 17.13,-617.45 -0.66,-688.46 -49.54,-197.7 -219.51,-279.46 -414.42,-269.41 -428.01,22.07 -368.7,403.78 -368.7,663.89 0,75.66 -23.9,258.68 30.42,310.28l51.86 -2.63z"/>
   <path class="fil2" d="M16631.44 9284.53l10.13 10.52 9.5 61.89 11.39 31.9c-9.5,140.47 -2,306.39 -2.01,449.7 0,50.7 -21.6,176.64 43.49,187.16 86.55,13.99 64.37,-97.14 64.35,-156.37 -0.04,-148.25 4.4,-304.28 -0.63,-451.56 -4.12,-120.34 -41.14,-234.06 -144.18,-299.58 -191.17,-121.57 -516.28,-85.74 -615.04,137.11 -51.15,115.44 -32.5,467.32 -32.83,634.56 -0.16,80.03 -20.07,146.52 82.22,133.13 84.92,-84.79 -20.89,-592.2 57.38,-742.71 96.45,-185.49 447.13,-180.89 516.23,4.25z"/>
   <path class="fil2" d="M11169.51 9192.18l10.18 -10.43c88.65,-37.06 166.43,-47.56 263.42,-27.21 72.13,15.16 152.2,76.87 167.09,150.24l10.29 10.35c17.02,128.43 10.89,447.34 10.05,605.59 -0.35,67.93 -1.03,126.44 87.9,97.88 44.7,-52.66 23.57,-388.81 23.58,-477.67 0,-132.44 5.6,-303.47 -111.14,-389.88l-10.29 -12.56c-87.93,-79.75 -242.59,-97.82 -359.56,-81.21 -120.71,17.15 -217.98,75.61 -273.87,188.85 -61.96,125.52 -38.64,460.78 -38.94,643.75 -0.12,74.91 -16.19,155.37 85.45,130.68 43.58,-52.9 23.37,-155.09 23.4,-223.06 0.05,-78.68 0.03,-157.36 0.03,-236.04 -0.01,-143.05 -21.87,-289.26 112.41,-369.28z"/>
   <path class="fil2" d="M14043.54 9144.61c18.49,-39.81 27.27,-25.73 -0.22,-70.08 -67.3,-20.04 -493.25,-16.53 -552.24,10.35 -89.63,40.83 -77.6,123.19 -77.56,209.75 0.41,780.46 -80.55,718.42 430.65,718.42 68.86,0 204.06,26.65 243.17,-32.3 -3.53,-63.77 -31.86,-56.56 -89.07,-56.99 -493.45,-3.69 -478.58,51.67 -478.89,-167.31 -0.08,-55.51 -10.01,-124.08 5.57,-175.93 98.48,-34.08 373.11,39.09 434.95,-40.68l-18.99 -44.49c-90.16,-33.08 -325.96,12.02 -413.86,-15.92 -21.08,-49.02 -7.8,-157.52 -7.71,-215.94 0.12,-84.86 9.65,-108.89 98.9,-109.61 85.58,-0.7 363.48,11.1 425.3,-9.27z"/>
   <path class="fil2" d="M15679.95 10022.43c48.53,-49.99 28.7,-176 28.92,-245.46l-0.44 -543.9c-0.01,-50.38 20.74,-208.22 -74.76,-178.49 -59.43,18.51 -37.21,183.4 -37.21,240.05l0 543.91c0,91.27 -33.6,201.67 83.49,183.89z"/>
   <path class="fil2" d="M13028.94 9071.76c-20.34,92.7 -6.83,377.05 -6.83,489.7 0,87.92 -26.48,408.59 24.13,464.19l66.57 -6.46c36.49,-65.23 19.01,-930.38 8.39,-945.93 -35.32,-28.6 -57.55,-29.39 -92.26,-1.5z"/>
   <path class="fil2" d="M15198.26 9951.44c18.61,93.74 175.53,71.71 161.15,-28.73 -14.36,-100.41 -182.47,-78.63 -161.15,28.73z"/>
   <path class="fil2" d="M14759.15 9509.33l-13.03 -9.5c0,14.75 -3.21,10.32 13.03,9.5z"/>
   <path class="fil2" d="M6363.24 9633.41c0,-14.28 3.26,-10.25 -11.96,-9.82l11.96 9.82z"/>
   <polygon class="fil2" points="14807.53,9079.03 14797.33,9068.79 "/>
   <polygon class="fil2" points="14387.03,9109.7 14376.82,9120.03 "/>
   <polygon class="fil2" points="11630.88,9151.05 11620.59,9138.49 "/>
   <polygon class="fil2" points="6300.75,9162.19 6284.12,9149.69 "/>
   <polygon class="fil2" points="8171.2,9152.12 8153.66,9160.68 "/>
   <polygon class="fil2" points="10186,9171.64 10175.81,9181.87 "/>
   <polygon class="fil2" points="11179.69,9181.75 11169.51,9192.18 "/>
   <polygon class="fil2" points="16641.57,9295.05 16631.44,9284.53 "/>
   <polygon class="fil2" points="11620.49,9315.13 11610.2,9304.78 "/>
   <polygon class="fil2" points="16662.46,9388.84 16651.07,9356.94 "/>
   <polygon class="fil2" points="14387.2,9961.71 14377.04,9951.5 "/>
  </g>
  <path class="fil3" d="M7837.2 10482.82l0 55.59 -176.34 0 0 122.54 137.48 0 0 55.59 -137.48 0 0 181.72 -68.15 0 0 -415.44 244.49 0zm108.61 249.26c0,-33.07 6.87,-62.36 20.62,-87.87 13.75,-25.5 32.48,-45.33 56.19,-59.48 23.71,-14.14 49.91,-21.22 78.6,-21.22 25.91,0 48.52,5.09 67.85,15.25 19.33,10.16 34.77,22.81 46.33,37.96l0 -47.83 68.74 0 0 329.37 -68.74 0 0 -49.02c-11.56,15.55 -27.3,28.5 -47.23,38.86 -19.92,10.36 -42.64,15.54 -68.14,15.54 -28.29,0 -54.2,-7.27 -77.71,-21.82 -23.51,-14.54 -42.14,-34.87 -55.89,-60.97 -13.75,-26.1 -20.62,-55.69 -20.62,-88.77zm269.59 1.2c0,-22.72 -4.69,-42.44 -14.05,-59.18 -9.37,-16.74 -21.62,-29.49 -36.76,-38.26 -15.15,-8.76 -31.48,-13.15 -49.02,-13.15 -17.53,0 -33.87,4.29 -49.02,12.85 -15.14,8.57 -27.39,21.13 -36.76,37.66 -9.36,16.54 -14.04,36.17 -14.04,58.88 0,22.72 4.68,42.64 14.04,59.78 9.37,17.13 21.72,30.19 37.06,39.15 15.35,8.97 31.59,13.45 48.72,13.45 17.54,0 33.87,-4.38 49.02,-13.15 15.14,-8.77 27.39,-21.62 36.76,-38.55 9.36,-16.94 14.05,-36.77 14.05,-59.48zm345.91 170.36c-25.9,0 -49.11,-4.68 -69.64,-14.05 -20.52,-9.36 -36.76,-22.11 -48.71,-38.25 -11.96,-16.14 -18.33,-34.18 -19.13,-54.1l70.53 0c1.2,13.95 7.88,25.6 20.03,34.97 12.15,9.36 27.4,14.04 45.73,14.04 19.13,0 33.97,-3.68 44.53,-11.05 10.56,-7.38 15.84,-16.84 15.84,-28.4 0,-12.35 -5.88,-21.52 -17.63,-27.49 -11.76,-5.98 -30.39,-12.56 -55.89,-19.73 -24.71,-6.77 -44.83,-13.35 -60.38,-19.73 -15.54,-6.37 -28.99,-16.14 -40.34,-29.29 -11.36,-13.15 -17.04,-30.48 -17.04,-52 0,-17.54 5.18,-33.58 15.54,-48.12 10.36,-14.55 25.21,-26 44.53,-34.37 19.33,-8.37 41.55,-12.56 66.65,-12.56 37.46,0 67.65,9.47 90.56,28.4 22.92,18.93 35.17,44.73 36.77,77.41l-68.15 0c-1.19,-14.75 -7.17,-26.5 -17.93,-35.27 -10.76,-8.77 -25.31,-13.15 -43.64,-13.15 -17.93,0 -31.68,3.39 -41.24,10.16 -9.57,6.78 -14.35,15.74 -14.35,26.9 0,8.77 3.19,16.14 9.57,22.12 6.37,5.98 14.14,10.66 23.31,14.04 9.16,3.39 22.71,7.68 40.65,12.86 23.91,6.37 43.53,12.85 58.88,19.42 15.34,6.58 28.59,16.24 39.75,29 11.15,12.75 16.93,29.68 17.33,50.8 0,18.73 -5.18,35.47 -15.54,50.22 -10.36,14.74 -25.01,26.3 -43.94,34.67 -18.92,8.37 -41.14,12.55 -66.65,12.55zm437.97 -340.13c25.11,0 47.53,5.38 67.25,16.14 19.73,10.76 35.27,26.7 46.63,47.82 11.35,21.13 17.03,46.63 17.03,76.52l0 194.27 -67.54 0 0 -184.11c0,-29.49 -7.38,-52.1 -22.12,-67.85 -14.75,-15.74 -34.87,-23.61 -60.37,-23.61 -25.51,0 -45.73,7.87 -60.68,23.61 -14.94,15.75 -22.41,38.36 -22.41,67.85l0 184.11 -68.15 0 0 -442.34 68.15 0 0 151.23c11.55,-13.95 26.2,-24.71 43.93,-32.28 17.74,-7.57 37.16,-11.36 58.28,-11.36zm320.22 -38.25c-12.35,0 -22.71,-4.19 -31.08,-12.56 -8.37,-8.36 -12.55,-18.72 -12.55,-31.08 0,-12.35 4.18,-22.71 12.55,-31.08 8.37,-8.37 18.73,-12.56 31.08,-12.56 11.96,0 22.12,4.19 30.49,12.56 8.37,8.37 12.55,18.73 12.55,31.08 0,12.36 -4.18,22.72 -12.55,31.08 -8.37,8.37 -18.53,12.56 -30.49,12.56zm33.48 43.63l0 329.37 -68.15 0 0 -329.37 68.15 0zm300.49 334.75c-31.09,0 -59.18,-7.07 -84.29,-21.22 -25.1,-14.15 -44.83,-34.07 -59.18,-59.78 -14.34,-25.7 -21.52,-55.49 -21.52,-89.36 0,-33.48 7.38,-63.17 22.12,-89.07 14.75,-25.9 34.87,-45.83 60.38,-59.77 25.5,-13.95 53.99,-20.93 85.48,-20.93 31.48,0 59.97,6.98 85.48,20.93 25.5,13.94 45.62,33.87 60.37,59.77 14.74,25.9 22.12,55.59 22.12,89.07 0,33.47 -7.58,63.16 -22.72,89.06 -15.14,25.91 -35.76,45.93 -61.87,60.08 -26.1,14.15 -54.89,21.22 -86.37,21.22zm0 -59.18c17.53,0 33.97,-4.18 49.31,-12.55 15.34,-8.37 27.8,-20.92 37.36,-37.66 9.57,-16.74 14.35,-37.06 14.35,-60.97 0,-23.91 -4.58,-44.14 -13.75,-60.67 -9.17,-16.54 -21.32,-29 -36.46,-37.36 -15.15,-8.37 -31.49,-12.56 -49.02,-12.56 -17.53,0 -33.77,4.19 -48.72,12.56 -14.94,8.36 -26.8,20.82 -35.56,37.36 -8.77,16.53 -13.15,36.76 -13.15,60.67 0,35.47 9.06,62.86 27.19,82.19 18.14,19.33 40.95,28.99 68.45,28.99zm472.64 -280.95c25.9,0 49.12,5.38 69.64,16.14 20.52,10.76 36.56,26.7 48.12,47.82 11.55,21.13 17.33,46.63 17.33,76.52l0 194.27 -67.54 0 0 -184.11c0,-29.49 -7.38,-52.1 -22.12,-67.85 -14.75,-15.74 -34.87,-23.61 -60.37,-23.61 -25.51,0 -45.73,7.87 -60.68,23.61 -14.94,15.75 -22.41,38.36 -22.41,67.85l0 184.11 -68.15 0 0 -329.37 68.15 0 0 37.66c11.15,-13.55 25.4,-24.11 42.74,-31.68 17.33,-7.57 35.76,-11.36 55.29,-11.36zm531.23 402.3l-68.15 0 0 -546.36 68.15 0 0 546.36zm599.37 -482.99l0 55.59 -110.59 0 0 359.85 -68.14 0 0 -359.85 -111.19 0 0 -55.59 289.92 0zm204.85 133.9c9.96,-16.74 23.21,-29.79 39.75,-39.16 16.54,-9.36 36.16,-14.05 58.88,-14.05l0 70.54 -17.34 0c-26.7,0 -46.92,6.77 -60.67,20.32 -13.75,13.55 -20.62,37.07 -20.62,70.54l0 173.35 -68.15 0 0 -329.37 68.15 0 0 47.83zm531.22 108.79c0,12.35 -0.8,23.51 -2.39,33.47l-251.66 0c2,26.3 11.76,47.42 29.29,63.36 17.54,15.94 39.06,23.91 64.56,23.91 36.66,0 62.57,-15.34 77.71,-46.02l73.52 0c-9.96,30.28 -27.99,55.09 -54.09,74.42 -26.11,19.33 -58.48,28.99 -97.14,28.99 -31.48,0 -59.68,-7.07 -84.58,-21.22 -24.91,-14.15 -44.44,-34.07 -58.58,-59.78 -14.15,-25.7 -21.22,-55.49 -21.22,-89.36 0,-33.87 6.87,-63.66 20.62,-89.37 13.75,-25.7 33.08,-45.53 57.98,-59.47 24.91,-13.95 53.5,-20.93 85.78,-20.93 31.08,0 58.78,6.78 83.09,20.33 24.31,13.55 43.24,32.58 56.79,57.08 13.55,24.51 20.32,52.71 20.32,84.59zm-71.13 -21.52c-0.4,-25.11 -9.37,-45.23 -26.9,-60.38 -17.54,-15.14 -39.25,-22.71 -65.16,-22.71 -23.51,0 -43.63,7.47 -60.37,22.42 -16.74,14.94 -26.7,35.16 -29.89,60.67l182.32 0zm372.22 -140.48c25.9,0 49.12,5.38 69.64,16.14 20.52,10.76 36.56,26.7 48.12,47.82 11.55,21.13 17.33,46.63 17.33,76.52l0 194.27 -67.54 0 0 -184.11c0,-29.49 -7.38,-52.1 -22.12,-67.85 -14.75,-15.74 -34.87,-23.61 -60.37,-23.61 -25.51,0 -45.73,7.87 -60.68,23.61 -14.94,15.75 -22.41,38.36 -22.41,67.85l0 184.11 -68.15 0 0 -329.37 68.15 0 0 37.66c11.15,-13.55 25.4,-24.11 42.74,-31.68 17.33,-7.57 35.76,-11.36 55.29,-11.36zm267.02 168.57c0,-33.07 6.87,-62.36 20.62,-87.87 13.75,-25.5 32.48,-45.33 56.19,-59.48 23.71,-14.14 50.11,-21.22 79.2,-21.22 21.52,0 42.74,4.69 63.66,14.05 20.93,9.37 37.56,21.82 49.92,37.36l0 -159 68.74 0 0 442.34 -68.74 0 0 -49.61c-11.16,15.94 -26.6,29.09 -46.33,39.45 -19.73,10.36 -42.34,15.54 -67.85,15.54 -28.69,0 -54.89,-7.27 -78.6,-21.82 -23.71,-14.54 -42.44,-34.87 -56.19,-60.97 -13.75,-26.1 -20.62,-55.69 -20.62,-88.77zm269.59 1.2c0,-22.72 -4.69,-42.44 -14.05,-59.18 -9.37,-16.74 -21.62,-29.49 -36.76,-38.26 -15.15,-8.76 -31.48,-13.15 -49.02,-13.15 -17.53,0 -33.87,4.29 -49.02,12.85 -15.14,8.57 -27.39,21.13 -36.76,37.66 -9.36,16.54 -14.04,36.17 -14.04,58.88 0,22.72 4.68,42.64 14.04,59.78 9.37,17.13 21.72,30.19 37.06,39.15 15.35,8.97 31.59,13.45 48.72,13.45 17.54,0 33.87,-4.38 49.02,-13.15 15.14,-8.77 27.39,-21.62 36.76,-38.55 9.36,-16.94 14.05,-36.77 14.05,-59.48zm467.86 232.53l-68.15 0 0 -546.36 68.15 0 0 546.36zm599.37 -482.99l0 55.59 -110.59 0 0 359.85 -68.14 0 0 -359.85 -111.19 0 0 -55.59 289.92 0zm204.85 133.9c9.96,-16.74 23.21,-29.79 39.75,-39.16 16.54,-9.36 36.16,-14.05 58.88,-14.05l0 70.54 -17.34 0c-26.7,0 -46.92,6.77 -60.67,20.32 -13.75,13.55 -20.62,37.07 -20.62,70.54l0 173.35 -68.15 0 0 -329.37 68.15 0 0 47.83zm206.64 115.36c0,-33.07 6.87,-62.36 20.62,-87.87 13.75,-25.5 32.48,-45.33 56.19,-59.48 23.71,-14.14 49.91,-21.22 78.6,-21.22 25.91,0 48.52,5.09 67.85,15.25 19.33,10.16 34.77,22.81 46.33,37.96l0 -47.83 68.74 0 0 329.37 -68.74 0 0 -49.02c-11.56,15.55 -27.3,28.5 -47.23,38.86 -19.92,10.36 -42.64,15.54 -68.14,15.54 -28.29,0 -54.2,-7.27 -77.71,-21.82 -23.51,-14.54 -42.14,-34.87 -55.89,-60.97 -13.75,-26.1 -20.62,-55.69 -20.62,-88.77zm269.59 1.2c0,-22.72 -4.69,-42.44 -14.05,-59.18 -9.37,-16.74 -21.62,-29.49 -36.76,-38.26 -15.15,-8.76 -31.48,-13.15 -49.02,-13.15 -17.53,0 -33.87,4.29 -49.02,12.85 -15.14,8.57 -27.39,21.13 -36.76,37.66 -9.36,16.54 -14.04,36.17 -14.04,58.88 0,22.72 4.68,42.64 14.04,59.78 9.37,17.13 21.72,30.19 37.06,39.15 15.35,8.97 31.59,13.45 48.72,13.45 17.54,0 33.87,-4.38 49.02,-13.15 15.14,-8.77 27.39,-21.62 36.76,-38.55 9.36,-16.94 14.05,-36.77 14.05,-59.48zm203.65 -1.2c0,-33.07 6.87,-62.36 20.62,-87.87 13.75,-25.5 32.48,-45.33 56.19,-59.48 23.71,-14.14 50.11,-21.22 79.2,-21.22 21.52,0 42.74,4.69 63.66,14.05 20.93,9.37 37.56,21.82 49.92,37.36l0 -159 68.74 0 0 442.34 -68.74 0 0 -49.61c-11.16,15.94 -26.6,29.09 -46.33,39.45 -19.73,10.36 -42.34,15.54 -67.85,15.54 -28.69,0 -54.89,-7.27 -78.6,-21.82 -23.71,-14.54 -42.44,-34.87 -56.19,-60.97 -13.75,-26.1 -20.62,-55.69 -20.62,-88.77zm269.59 1.2c0,-22.72 -4.69,-42.44 -14.05,-59.18 -9.37,-16.74 -21.62,-29.49 -36.76,-38.26 -15.15,-8.76 -31.48,-13.15 -49.02,-13.15 -17.53,0 -33.87,4.29 -49.02,12.85 -15.14,8.57 -27.39,21.13 -36.76,37.66 -9.36,16.54 -14.04,36.17 -14.04,58.88 0,22.72 4.68,42.64 14.04,59.78 9.37,17.13 21.72,30.19 37.06,39.15 15.35,8.97 31.59,13.45 48.72,13.45 17.54,0 33.87,-4.38 49.02,-13.15 15.14,-8.77 27.39,-21.62 36.76,-38.55 9.36,-16.94 14.05,-36.77 14.05,-59.48zm261.03 -208.02c-12.35,0 -22.71,-4.19 -31.08,-12.56 -8.37,-8.36 -12.55,-18.72 -12.55,-31.08 0,-12.35 4.18,-22.71 12.55,-31.08 8.37,-8.37 18.73,-12.56 31.08,-12.56 11.96,0 22.12,4.19 30.49,12.56 8.37,8.37 12.55,18.73 12.55,31.08 0,12.36 -4.18,22.72 -12.55,31.08 -8.37,8.37 -18.53,12.56 -30.49,12.56zm33.48 43.63l0 329.37 -68.15 0 0 -329.37 68.15 0zm237.12 55.6l0 182.31c0,12.36 2.89,21.22 8.67,26.6 5.78,5.38 15.64,8.07 29.59,8.07l41.84 0 0 56.79 -53.79 0c-30.69,0 -54.2,-7.17 -70.54,-21.52 -16.34,-14.35 -24.51,-37.66 -24.51,-69.94l0 -182.31 -38.85 0 0 -55.6 38.85 0 0 -81.89 68.74 0 0 81.89 80.1 0 0 55.6 -80.1 0zm245.5 -99.23c-12.35,0 -22.71,-4.19 -31.08,-12.56 -8.37,-8.36 -12.55,-18.72 -12.55,-31.08 0,-12.35 4.18,-22.71 12.55,-31.08 8.37,-8.37 18.73,-12.56 31.08,-12.56 11.96,0 22.12,4.19 30.49,12.56 8.37,8.37 12.55,18.73 12.55,31.08 0,12.36 -4.18,22.72 -12.55,31.08 -8.37,8.37 -18.53,12.56 -30.49,12.56zm33.48 43.63l0 329.37 -68.15 0 0 -329.37 68.15 0zm300.49 334.75c-31.09,0 -59.18,-7.07 -84.29,-21.22 -25.1,-14.15 -44.83,-34.07 -59.18,-59.78 -14.34,-25.7 -21.52,-55.49 -21.52,-89.36 0,-33.48 7.38,-63.17 22.12,-89.07 14.75,-25.9 34.87,-45.83 60.38,-59.77 25.5,-13.95 53.99,-20.93 85.48,-20.93 31.48,0 59.97,6.98 85.48,20.93 25.5,13.94 45.62,33.87 60.37,59.77 14.74,25.9 22.12,55.59 22.12,89.07 0,33.47 -7.58,63.16 -22.72,89.06 -15.14,25.91 -35.76,45.93 -61.87,60.08 -26.1,14.15 -54.89,21.22 -86.37,21.22zm0 -59.18c17.53,0 33.97,-4.18 49.31,-12.55 15.34,-8.37 27.8,-20.92 37.36,-37.66 9.57,-16.74 14.35,-37.06 14.35,-60.97 0,-23.91 -4.58,-44.14 -13.75,-60.67 -9.17,-16.54 -21.32,-29 -36.46,-37.36 -15.15,-8.37 -31.49,-12.56 -49.02,-12.56 -17.53,0 -33.77,4.19 -48.72,12.56 -14.94,8.36 -26.8,20.82 -35.56,37.36 -8.77,16.53 -13.15,36.76 -13.15,60.67 0,35.47 9.06,62.86 27.19,82.19 18.14,19.33 40.95,28.99 68.45,28.99zm472.64 -280.95c25.9,0 49.12,5.38 69.64,16.14 20.52,10.76 36.56,26.7 48.12,47.82 11.55,21.13 17.33,46.63 17.33,76.52l0 194.27 -67.54 0 0 -184.11c0,-29.49 -7.38,-52.1 -22.12,-67.85 -14.75,-15.74 -34.87,-23.61 -60.37,-23.61 -25.51,0 -45.73,7.87 -60.68,23.61 -14.94,15.75 -22.41,38.36 -22.41,67.85l0 184.11 -68.15 0 0 -329.37 68.15 0 0 37.66c11.15,-13.55 25.4,-24.11 42.74,-31.68 17.33,-7.57 35.76,-11.36 55.29,-11.36z"/>
 </g>
</svg>
